<svg xmlns="http://www.w3.org/2000/svg" viewBox="15 10 210 220" width="240" height="240">
  <defs>
    <linearGradient id="g" x1="8" y1="220" x2="232" y2="20"
                    gradientUnits="userSpaceOnUse">
      <stop offset="0%"   stop-color="#38A3A5"/>
      <stop offset="55%"  stop-color="#3375B5"/>
      <stop offset="100%" stop-color="#1E3F7A"/>
    </linearGradient>
    <clipPath id="c">
      <circle cx="120" cy="120" r="112"/>
    </clipPath>
  </defs>
  <g fill="url(#g)" clip-path="url(#c)">
    <circle cx="20.6" cy="80.2" r="1.7"/>
    <circle cx="29.0" cy="63.2" r="1.83"/>
    <circle cx="18.5" cy="126.9" r="2.64"/>
    <circle cx="27.9" cy="115.4" r="4.72"/>
    <circle cx="36.9" cy="101.1" r="5.31"/>
    <circle cx="45.3" cy="84.0" r="5.9"/>
    <circle cx="53.4" cy="64.5" r="6.51"/>
    <circle cx="61.5" cy="42.8" r="6.22"/>
    <circle cx="25.0" cy="156.5" r="2.28"/>
    <circle cx="34.8" cy="147.8" r="4.15"/>
    <circle cx="44.2" cy="136.3" r="4.72"/>
    <circle cx="53.2" cy="122.0" r="5.31"/>
    <circle cx="61.6" cy="104.9" r="5.9"/>
    <circle cx="69.7" cy="85.3" r="6.51"/>
    <circle cx="77.8" cy="63.6" r="7.12"/>
    <circle cx="86.3" cy="40.4" r="7.75"/>
    <circle cx="95.6" cy="16.2" r="2.92"/>
    <circle cx="31.2" cy="183.4" r="0.58"/>
    <circle cx="41.3" cy="177.4" r="3.06"/>
    <circle cx="51.1" cy="168.7" r="4.15"/>
    <circle cx="60.5" cy="157.2" r="4.72"/>
    <circle cx="69.5" cy="142.8" r="5.31"/>
    <circle cx="77.9" cy="125.8" r="5.9"/>
    <circle cx="86.0" cy="106.2" r="6.51"/>
    <circle cx="94.1" cy="84.5" r="7.12"/>
    <circle cx="102.6" cy="61.2" r="7.75"/>
    <circle cx="111.9" cy="37.0" r="8.38"/>
    <circle cx="122.6" cy="12.6" r="2.72"/>
    <circle cx="57.6" cy="198.2" r="2.6"/>
    <circle cx="67.4" cy="189.5" r="4.15"/>
    <circle cx="76.8" cy="178.0" r="4.72"/>
    <circle cx="85.8" cy="163.7" r="5.31"/>
    <circle cx="94.2" cy="146.6" r="5.9"/>
    <circle cx="102.3" cy="127.0" r="6.51"/>
    <circle cx="110.4" cy="105.4" r="7.12"/>
    <circle cx="118.9" cy="82.1" r="7.75"/>
    <circle cx="128.2" cy="57.9" r="8.38"/>
    <circle cx="138.8" cy="33.5" r="9.02"/>
    <circle cx="73.9" cy="219.1" r="0.65"/>
    <circle cx="83.7" cy="210.4" r="3.53"/>
    <circle cx="93.1" cy="198.9" r="4.72"/>
    <circle cx="102.0" cy="184.6" r="5.31"/>
    <circle cx="110.5" cy="167.5" r="5.9"/>
    <circle cx="118.6" cy="147.9" r="6.51"/>
    <circle cx="126.7" cy="126.2" r="7.12"/>
    <circle cx="135.2" cy="103.0" r="7.75"/>
    <circle cx="144.5" cy="78.8" r="8.38"/>
    <circle cx="155.1" cy="54.3" r="9.02"/>
    <circle cx="167.8" cy="30.5" r="6.27"/>
    <circle cx="109.4" cy="219.7" r="3.36"/>
    <circle cx="118.3" cy="205.4" r="5.31"/>
    <circle cx="126.8" cy="188.3" r="5.9"/>
    <circle cx="134.9" cy="168.8" r="6.51"/>
    <circle cx="143.0" cy="147.1" r="7.12"/>
    <circle cx="151.5" cy="123.8" r="7.75"/>
    <circle cx="160.8" cy="99.6" r="8.38"/>
    <circle cx="171.4" cy="75.2" r="9.02"/>
    <circle cx="184.1" cy="51.3" r="9.48"/>
    <circle cx="134.6" cy="226.3" r="1.64"/>
    <circle cx="143.1" cy="209.2" r="5.9"/>
    <circle cx="151.2" cy="189.6" r="6.51"/>
    <circle cx="159.3" cy="167.9" r="7.12"/>
    <circle cx="167.8" cy="144.7" r="7.75"/>
    <circle cx="177.1" cy="120.5" r="8.38"/>
    <circle cx="187.7" cy="96.1" r="9.02"/>
    <circle cx="200.4" cy="72.2" r="9.58"/>
    <circle cx="167.5" cy="210.5" r="3.96"/>
    <circle cx="175.6" cy="188.8" r="7.12"/>
    <circle cx="184.1" cy="165.5" r="7.75"/>
    <circle cx="193.4" cy="141.3" r="8.38"/>
    <circle cx="204.0" cy="116.9" r="9.02"/>
    <circle cx="216.7" cy="93.0" r="6.85"/>
    <circle cx="200.4" cy="186.4" r="3.81"/>
    <circle cx="209.7" cy="162.2" r="6.45"/>
    <circle cx="220.3" cy="137.8" r="5.65"/>
  </g>
</svg>